REM DIRINDEX 1\2,1\3
REM DIRNAME cjc143,folder01,folder02
TITLE ""
FILE "sample sentencesTrack11.mp3" MP3
  TRACK 01 AUDIO
    TITLE "3:cjc143_2729"
    INDEX 01 00:00:00
  TRACK 02 AUDIO
    TITLE "0:"
    INDEX 01 00:00:62
  TRACK 03 AUDIO
    TITLE "3:cjc143_2730"
    INDEX 01 00:01:26
  TRACK 04 AUDIO
    TITLE "0:"
    INDEX 01 00:04:70
  TRACK 05 AUDIO
    TITLE "3:cjc143_2731"
    INDEX 01 00:06:02
  TRACK 06 AUDIO
    TITLE "0:"
    INDEX 01 00:09:14
  TRACK 07 AUDIO
    TITLE "3:cjc143_2732"
    INDEX 01 00:10:23
  TRACK 08 AUDIO
    TITLE "0:"
    INDEX 01 00:13:20
  TRACK 09 AUDIO
    TITLE "3:cjc143_2733"
    INDEX 01 00:14:27
  TRACK 10 AUDIO
    TITLE "0:"
    INDEX 01 00:16:32
  TRACK 11 AUDIO
    TITLE "3:cjc143_2734"
    INDEX 01 00:17:39
  TRACK 12 AUDIO
    TITLE "0:"
    INDEX 01 00:20:00
  TRACK 13 AUDIO
    TITLE "3:cjc143_2735"
    INDEX 01 00:21:08
  TRACK 14 AUDIO
    TITLE "0:"
    INDEX 01 00:23:34
  TRACK 15 AUDIO
    TITLE "3:cjc143_2736"
    INDEX 01 00:24:43
  TRACK 16 AUDIO
    TITLE "0:"
    INDEX 01 00:26:64
  TRACK 17 AUDIO
    TITLE "3:cjc143_2737"
    INDEX 01 00:27:71
  TRACK 18 AUDIO
    TITLE "0:"
    INDEX 01 00:31:43
  TRACK 19 AUDIO
    TITLE "3:cjc143_2738"
    INDEX 01 00:32:56
  TRACK 20 AUDIO
    TITLE "0:"
    INDEX 01 00:36:01
  TRACK 21 AUDIO
    TITLE "3:cjc143_2739"
    INDEX 01 00:37:10
  TRACK 22 AUDIO
    TITLE "0:"
    INDEX 01 00:40:28
  TRACK 23 AUDIO
    TITLE "3:cjc143_2740"
    INDEX 01 00:41:40
  TRACK 24 AUDIO
    TITLE "0:"
    INDEX 01 00:43:44
  TRACK 25 AUDIO
    TITLE "3:cjc143_2741"
    INDEX 01 00:44:54
  TRACK 26 AUDIO
    TITLE "0:"
    INDEX 01 00:47:23
  TRACK 27 AUDIO
    TITLE "3:cjc143_2742"
    INDEX 01 00:48:30
  TRACK 28 AUDIO
    TITLE "0:"
    INDEX 01 00:51:60
  TRACK 29 AUDIO
    TITLE "3:cjc143_2743"
    INDEX 01 00:52:71
  TRACK 30 AUDIO
    TITLE "0:"
    INDEX 01 00:56:00
  TRACK 31 AUDIO
    TITLE "3:cjc143_2744"
    INDEX 01 00:57:11
  TRACK 32 AUDIO
    TITLE "0:"
    INDEX 01 00:59:73
  TRACK 33 AUDIO
    TITLE "3:cjc143_2745"
    INDEX 01 01:01:07
  TRACK 34 AUDIO
    TITLE "0:"
    INDEX 01 01:04:29
  TRACK 35 AUDIO
    TITLE "3:cjc143_2746"
    INDEX 01 01:05:36
  TRACK 36 AUDIO
    TITLE "0:"
    INDEX 01 01:08:36
  TRACK 37 AUDIO
    TITLE "3:cjc143_2747"
    INDEX 01 01:09:46
  TRACK 38 AUDIO
    TITLE "0:"
    INDEX 01 01:12:73
  TRACK 39 AUDIO
    TITLE "3:cjc143_2748"
    INDEX 01 01:14:08
  TRACK 40 AUDIO
    TITLE "0:"
    INDEX 01 01:17:26
  TRACK 41 AUDIO
    TITLE "3:cjc143_2749"
    INDEX 01 01:18:39
  TRACK 42 AUDIO
    TITLE "0:"
    INDEX 01 01:21:41
  TRACK 43 AUDIO
    TITLE "3:cjc143_2750"
    INDEX 01 01:22:50
  TRACK 44 AUDIO
    TITLE "0:"
    INDEX 01 01:26:54
  TRACK 45 AUDIO
    TITLE "3:cjc143_2751"
    INDEX 01 01:27:61
  TRACK 46 AUDIO
    TITLE "0:"
    INDEX 01 01:30:64
  TRACK 47 AUDIO
    TITLE "3:cjc143_2752"
    INDEX 01 01:31:73
  TRACK 48 AUDIO
    TITLE "0:"
    INDEX 01 01:35:31
  TRACK 49 AUDIO
    TITLE "3:cjc143_2753"
    INDEX 01 01:36:39
  TRACK 50 AUDIO
    TITLE "0:"
    INDEX 01 01:39:59
  TRACK 51 AUDIO
    TITLE "3:cjc143_2754"
    INDEX 01 01:40:68
  TRACK 52 AUDIO
    TITLE "0:"
    INDEX 01 01:44:38
  TRACK 53 AUDIO
    TITLE "3:cjc143_2755"
    INDEX 01 01:45:49
  TRACK 54 AUDIO
    TITLE "0:"
    INDEX 01 01:48:52
  TRACK 55 AUDIO
    TITLE "3:cjc143_2756"
    INDEX 01 01:49:65
  TRACK 56 AUDIO
    TITLE "0:"
    INDEX 01 01:52:42
  TRACK 57 AUDIO
    TITLE "3:cjc143_2757"
    INDEX 01 01:53:51
  TRACK 58 AUDIO
    TITLE "0:"
    INDEX 01 01:56:32
  TRACK 59 AUDIO
    TITLE "3:cjc143_2758"
    INDEX 01 01:57:43
  TRACK 60 AUDIO
    TITLE "0:"
    INDEX 01 02:00:06
  TRACK 61 AUDIO
    TITLE "3:cjc143_2759"
    INDEX 01 02:01:21
  TRACK 62 AUDIO
    TITLE "0:"
    INDEX 01 02:03:47
  TRACK 63 AUDIO
    TITLE "3:cjc143_2760"
    INDEX 01 02:04:55
  TRACK 64 AUDIO
    TITLE "0:"
    INDEX 01 02:08:25
  TRACK 65 AUDIO
    TITLE "3:cjc143_2761"
    INDEX 01 02:09:34
  TRACK 66 AUDIO
    TITLE "0:"
    INDEX 01 02:13:40
  TRACK 67 AUDIO
    TITLE "3:cjc143_2762"
    INDEX 01 02:14:49
  TRACK 68 AUDIO
    TITLE "0:"
    INDEX 01 02:18:49
  TRACK 69 AUDIO
    TITLE "3:cjc143_2763"
    INDEX 01 02:20:22
  TRACK 70 AUDIO
    TITLE "0:"
    INDEX 01 02:23:38
  TRACK 71 AUDIO
    TITLE "3:cjc143_2764"
    INDEX 01 02:24:49
  TRACK 72 AUDIO
    TITLE "0:"
    INDEX 01 02:27:62
  TRACK 73 AUDIO
    TITLE "3:cjc143_2765"
    INDEX 01 02:28:73
  TRACK 74 AUDIO
    TITLE "0:"
    INDEX 01 02:31:36
  TRACK 75 AUDIO
    TITLE "3:cjc143_2766"
    INDEX 01 02:32:45
  TRACK 76 AUDIO
    TITLE "0:"
    INDEX 01 02:34:67
  TRACK 77 AUDIO
    TITLE "3:cjc143_2767"
    INDEX 01 02:35:73
  TRACK 78 AUDIO
    TITLE "0:"
    INDEX 01 02:39:00
  TRACK 79 AUDIO
    TITLE "3:cjc143_2768"
    INDEX 01 02:40:17
  TRACK 80 AUDIO
    TITLE "0:"
    INDEX 01 02:44:25
  TRACK 81 AUDIO
    TITLE "3:cjc143_2769"
    INDEX 01 02:45:36
  TRACK 82 AUDIO
    TITLE "0:"
    INDEX 01 02:49:12
  TRACK 83 AUDIO
    TITLE "3:cjc143_2770"
    INDEX 01 02:50:25
  TRACK 84 AUDIO
    TITLE "0:"
    INDEX 01 02:53:22
  TRACK 85 AUDIO
    TITLE "3:cjc143_2771"
    INDEX 01 02:54:37
  TRACK 86 AUDIO
    TITLE "0:"
    INDEX 01 02:56:49
